<svg xmlns="http://www.w3.org/2000/svg" viewBox="0 0 2447 864"><defs><style>.cls-1{fill:#fff;}</style></defs><title>Loop_Name_right_white</title><g id="Layer_2" data-name="Layer 2"><g id="Royal_Blue" data-name="Royal Blue"><path class="cls-1" d="M906.75,864a21.31,21.31,0,0,1-18.49-10.67c-3-5.12-76-126.79-240.69-126.78-17,0-71.61-2-137.37-24.17-65.76,22.21-120.37,24.17-137.37,24.17-182,0-352.54-70.33-359.71-73.33a21.33,21.33,0,0,1,16.42-39.37c1.69.7,170.09,70,343.29,70,10.76,0,38.24-.86,74.18-8.33a417.08,417.08,0,0,1-120.37-93.62c-26.08-29.38-110.9-136.69-107.52-284.33.77-33.42,2-89.36,35.93-149.31C306,58.21,406.11,0,510.2,0S714.45,58.21,765.35,148.29c33.88,60,35.16,115.89,35.93,149.31,3.38,147.65-81.45,255-107.53,284.32a417,417,0,0,1-120.37,93.63c36,7.47,63.43,8.33,74.19,8.33C837.49,683.88,921.71,826,925.2,832a21.33,21.33,0,0,1-18.45,32ZM510.2,42.66c-89,0-174.55,49.7-218,126.62-28.62,50.64-29.74,99.88-30.42,129.3-3,132.08,73.31,228.59,96.77,255C406,607,460.82,638.6,510.2,657.23,559.57,638.6,614.41,607,661.85,553.6c23.47-26.43,99.81-122.93,96.78-255-.68-29.42-1.8-78.66-30.42-129.3C684.75,92.36,599.17,42.66,510.2,42.66Z"/><path class="cls-1" d="M1069.67,162.85h0a23.2,23.2,0,0,1,23.2,23.2V593.89h198.38a20.84,20.84,0,0,1,20.84,20.84h0a20.84,20.84,0,0,1-20.84,20.85H1046.47V186.05A23.2,23.2,0,0,1,1069.67,162.85Z"/><path class="cls-1" d="M1485.44,289.27c98.85,0,178.87,75.31,178.87,175.51,0,102.21-80,178.87-178.87,178.87S1306.57,567,1306.57,464.78C1306.57,364.58,1386.59,289.27,1485.44,289.27Zm0,313.36c72.62,0,131.8-59.18,131.8-137.85,0-76.66-59.18-133.82-131.8-133.82s-131.8,57.16-131.8,133.82C1353.64,543.45,1412.81,602.63,1485.44,602.63Z"/><path class="cls-1" d="M1876.78,289.27c98.85,0,178.87,75.31,178.87,175.51,0,102.21-80,178.87-178.87,178.87S1697.91,567,1697.91,464.78C1697.91,364.58,1777.94,289.27,1876.78,289.27Zm0,313.36c72.63,0,131.8-59.18,131.8-137.85,0-76.66-59.17-133.82-131.8-133.82S1745,388.12,1745,464.78C1745,543.45,1804.16,602.63,1876.78,602.63Z"/><path class="cls-1" d="M2268.13,289.27c98.85,0,178.87,75.31,178.87,175.51,0,102.21-80,178.87-178.87,178.87S2089.26,567,2089.26,464.78C2089.26,364.58,2169.28,289.27,2268.13,289.27Zm0,313.36c72.62,0,131.8-59.18,131.8-137.85,0-76.66-59.18-133.82-131.8-133.82s-131.8,57.16-131.8,133.82C2136.33,543.45,2195.5,602.63,2268.13,602.63Z"/><rect class="cls-1" x="2088.21" y="294.32" width="47.7" height="474.58" rx="23.85" ry="23.85"/></g></g></svg>